<svg data-name="Component 40 – 13" xmlns="http://www.w3.org/2000/svg" width="35" height="35" viewBox="0 0 35 35">
    <circle data-name="Ellipse 2829" cx="17.5" cy="17.5" r="17.5" style="fill:#fff"/>
    <path d="M19.757.123a.7.7 0 0 1 .3.717l-2.867 17.2a.706.706 0 0 1-.358.5.687.687 0 0 1-.347.09.754.754 0 0 1-.269-.056l-5.073-2.072-2.71 3.3a.659.659 0 0 1-.549.258.605.605 0 0 1-.246-.045.717.717 0 0 1-.47-.672v-3.899l9.677-11.86-11.972 10.36-4.424-1.815a.709.709 0 0 1-.09-1.277L19 .1a.685.685 0 0 1 .358-.1.7.7 0 0 1 .399.123z" transform="translate(7 7)" style="fill:#b9232f"/>
</svg>
